<svg width="142" height="141" viewBox="0 0 142 141" fill="none" xmlns="http://www.w3.org/2000/svg">
<path fill-rule="evenodd" clip-rule="evenodd" d="M141.5 70.5C141.5 89.1978 134.072 107.13 120.851 120.351C107.63 133.572 89.6978 141 71 141C52.3022 141 34.3703 133.572 21.149 120.351C7.92766 107.13 0.5 89.1978 0.5 70.5C0.5 51.8022 7.92766 33.8703 21.149 20.649C34.3703 7.42766 52.3022 0 71 0C89.6978 0 107.63 7.42766 120.851 20.649C134.072 33.8703 141.5 51.8022 141.5 70.5V70.5ZM106.514 43.7981C105.885 43.1708 105.135 42.6769 104.311 42.346C103.486 42.015 102.603 41.8537 101.714 41.8718C100.826 41.8899 99.9502 42.087 99.1396 42.4513C98.3291 42.8156 97.6003 43.3396 96.9969 43.992L66.3911 82.9873L47.9465 64.5339C46.6936 63.3665 45.0364 62.7309 43.3241 62.7611C41.6119 62.7913 39.9782 63.4849 38.7672 64.6959C37.5563 65.9068 36.8626 67.5406 36.8324 69.2528C36.8022 70.9651 37.4378 72.6223 38.6052 73.8752L61.9231 97.2019C62.5513 97.8289 63.2993 98.323 64.1226 98.6546C64.9458 98.9863 65.8275 99.1488 66.7149 99.1323C67.6023 99.1159 68.4773 98.9209 69.2877 98.5589C70.0981 98.197 70.8273 97.6755 71.4318 97.0256L106.611 53.0512C107.811 51.8043 108.473 50.1367 108.457 48.4067C108.44 46.6766 107.746 45.022 106.523 43.7981H106.514Z" fill="#2DB674"/>
</svg>
