<svg width="463" height="531" viewBox="0 0 463 531" fill="none" xmlns="http://www.w3.org/2000/svg">
<path d="M5 28.375C5 20.8495 7.9895 13.6322 13.3108 8.31085C18.6322 2.9895 25.8495 0 33.375 0L175.25 0C182.776 0 189.993 2.9895 195.314 8.31085C200.635 13.6322 203.625 20.8495 203.625 28.375V425.625C203.625 433.151 200.635 440.368 195.314 445.689C189.993 451.01 182.776 454 175.25 454H33.375C25.8495 454 18.6322 451.01 13.3108 445.689C7.9895 440.368 5 433.151 5 425.625V28.375ZM260.375 28.375C260.375 20.8495 263.365 13.6322 268.686 8.31085C274.007 2.9895 281.224 0 288.75 0L430.625 0C438.151 0 445.368 2.9895 450.689 8.31085C456.01 13.6322 459 20.8495 459 28.375V170.25C459 177.776 456.01 184.993 450.689 190.314C445.368 195.635 438.151 198.625 430.625 198.625H288.75C281.224 198.625 274.007 195.635 268.686 190.314C263.365 184.993 260.375 177.776 260.375 170.25V28.375ZM260.375 283.75C260.375 276.224 263.365 269.007 268.686 263.686C274.007 258.365 281.224 255.375 288.75 255.375H430.625C438.151 255.375 445.368 258.365 450.689 263.686C456.01 269.007 459 276.224 459 283.75V425.625C459 433.151 456.01 440.368 450.689 445.689C445.368 451.01 438.151 454 430.625 454H288.75C281.224 454 274.007 451.01 268.686 445.689C263.365 440.368 260.375 433.151 260.375 425.625V283.75Z" fill="#424C5A"/>
<path d="M10.0586 512.672H21.0986V518H3.33857V484.496H10.0586V512.672ZM36.8778 518.432C34.3178 518.432 32.0138 517.872 29.9658 516.752C27.9178 515.6 26.3018 513.984 25.1178 511.904C23.9658 509.824 23.3898 507.424 23.3898 504.704C23.3898 501.984 23.9818 499.584 25.1658 497.504C26.3818 495.424 28.0298 493.824 30.1098 492.704C32.1898 491.552 34.5098 490.976 37.0698 490.976C39.6298 490.976 41.9498 491.552 44.0298 492.704C46.1098 493.824 47.7418 495.424 48.9258 497.504C50.1418 499.584 50.7498 501.984 50.7498 504.704C50.7498 507.424 50.1258 509.824 48.8778 511.904C47.6618 513.984 45.9978 515.6 43.8858 516.752C41.8058 517.872 39.4698 518.432 36.8778 518.432ZM36.8778 512.576C38.0938 512.576 39.2298 512.288 40.2858 511.712C41.3738 511.104 42.2378 510.208 42.8778 509.024C43.5178 507.84 43.8378 506.4 43.8378 504.704C43.8378 502.176 43.1658 500.24 41.8218 498.896C40.5098 497.52 38.8938 496.832 36.9738 496.832C35.0538 496.832 33.4378 497.52 32.1258 498.896C30.8458 500.24 30.2058 502.176 30.2058 504.704C30.2058 507.232 30.8298 509.184 32.0778 510.56C33.3578 511.904 34.9578 512.576 36.8778 512.576ZM67.1872 518.432C64.6272 518.432 62.3232 517.872 60.2752 516.752C58.2272 515.6 56.6112 513.984 55.4272 511.904C54.2752 509.824 53.6992 507.424 53.6992 504.704C53.6992 501.984 54.2912 499.584 55.4752 497.504C56.6912 495.424 58.3392 493.824 60.4192 492.704C62.4992 491.552 64.8192 490.976 67.3792 490.976C69.9392 490.976 72.2592 491.552 74.3392 492.704C76.4192 493.824 78.0512 495.424 79.2352 497.504C80.4512 499.584 81.0592 501.984 81.0592 504.704C81.0592 507.424 80.4352 509.824 79.1872 511.904C77.9712 513.984 76.3072 515.6 74.1952 516.752C72.1152 517.872 69.7792 518.432 67.1872 518.432ZM67.1872 512.576C68.4032 512.576 69.5392 512.288 70.5952 511.712C71.6832 511.104 72.5472 510.208 73.1872 509.024C73.8272 507.84 74.1472 506.4 74.1472 504.704C74.1472 502.176 73.4752 500.24 72.1312 498.896C70.8192 497.52 69.2032 496.832 67.2832 496.832C65.3632 496.832 63.7472 497.52 62.4352 498.896C61.1552 500.24 60.5152 502.176 60.5152 504.704C60.5152 507.232 61.1392 509.184 62.3872 510.56C63.6672 511.904 65.2672 512.576 67.1872 512.576ZM101.433 518L92.4086 506.672V518H85.6886V482.48H92.4086V502.688L101.337 491.408H110.073L98.3606 504.752L110.169 518H101.433ZM120.14 495.296C121.004 494.016 122.188 492.976 123.692 492.176C125.228 491.376 126.972 490.976 128.924 490.976C131.196 490.976 133.244 491.536 135.068 492.656C136.924 493.776 138.38 495.376 139.436 497.456C140.524 499.504 141.068 501.888 141.068 504.608C141.068 507.328 140.524 509.744 139.436 511.856C138.38 513.936 136.924 515.552 135.068 516.704C133.244 517.856 131.196 518.432 128.924 518.432C126.94 518.432 125.196 518.048 123.692 517.28C122.22 516.48 121.036 515.456 120.14 514.208V518H113.42V482.48H120.14V495.296ZM134.204 504.608C134.204 503.008 133.868 501.632 133.196 500.48C132.556 499.296 131.692 498.4 130.604 497.792C129.548 497.184 128.396 496.88 127.148 496.88C125.932 496.88 124.78 497.2 123.692 497.84C122.636 498.448 121.772 499.344 121.1 500.528C120.46 501.712 120.14 503.104 120.14 504.704C120.14 506.304 120.46 507.696 121.1 508.88C121.772 510.064 122.636 510.976 123.692 511.616C124.78 512.224 125.932 512.528 127.148 512.528C128.396 512.528 129.548 512.208 130.604 511.568C131.692 510.928 132.556 510.016 133.196 508.832C133.868 507.648 134.204 506.24 134.204 504.608ZM157.459 518.432C154.899 518.432 152.595 517.872 150.547 516.752C148.499 515.6 146.883 513.984 145.699 511.904C144.547 509.824 143.971 507.424 143.971 504.704C143.971 501.984 144.563 499.584 145.747 497.504C146.963 495.424 148.611 493.824 150.691 492.704C152.771 491.552 155.091 490.976 157.651 490.976C160.211 490.976 162.531 491.552 164.611 492.704C166.691 493.824 168.323 495.424 169.507 497.504C170.723 499.584 171.331 501.984 171.331 504.704C171.331 507.424 170.707 509.824 169.459 511.904C168.243 513.984 166.579 515.6 164.467 516.752C162.387 517.872 160.051 518.432 157.459 518.432ZM157.459 512.576C158.675 512.576 159.811 512.288 160.867 511.712C161.955 511.104 162.819 510.208 163.459 509.024C164.099 507.84 164.419 506.4 164.419 504.704C164.419 502.176 163.747 500.24 162.403 498.896C161.091 497.52 159.475 496.832 157.555 496.832C155.635 496.832 154.019 497.52 152.707 498.896C151.427 500.24 150.787 502.176 150.787 504.704C150.787 507.232 151.411 509.184 152.659 510.56C153.939 511.904 155.539 512.576 157.459 512.576ZM187.768 518.432C185.208 518.432 182.904 517.872 180.856 516.752C178.808 515.6 177.192 513.984 176.008 511.904C174.856 509.824 174.28 507.424 174.28 504.704C174.28 501.984 174.872 499.584 176.056 497.504C177.272 495.424 178.92 493.824 181 492.704C183.08 491.552 185.4 490.976 187.96 490.976C190.52 490.976 192.84 491.552 194.92 492.704C197 493.824 198.632 495.424 199.816 497.504C201.032 499.584 201.64 501.984 201.64 504.704C201.64 507.424 201.016 509.824 199.768 511.904C198.552 513.984 196.888 515.6 194.776 516.752C192.696 517.872 190.36 518.432 187.768 518.432ZM187.768 512.576C188.984 512.576 190.12 512.288 191.176 511.712C192.264 511.104 193.128 510.208 193.768 509.024C194.408 507.84 194.728 506.4 194.728 504.704C194.728 502.176 194.056 500.24 192.712 498.896C191.4 497.52 189.784 496.832 187.864 496.832C185.944 496.832 184.328 497.52 183.016 498.896C181.736 500.24 181.096 502.176 181.096 504.704C181.096 507.232 181.72 509.184 182.968 510.56C184.248 511.904 185.848 512.576 187.768 512.576ZM222.014 518L212.99 506.672V518H206.27V482.48H212.99V502.688L221.918 491.408H230.654L218.942 504.752L230.75 518H222.014ZM248.547 488.24C247.363 488.24 246.371 487.872 245.571 487.136C244.803 486.368 244.419 485.424 244.419 484.304C244.419 483.184 244.803 482.256 245.571 481.52C246.371 480.752 247.363 480.368 248.547 480.368C249.731 480.368 250.707 480.752 251.475 481.52C252.275 482.256 252.675 483.184 252.675 484.304C252.675 485.424 252.275 486.368 251.475 487.136C250.707 487.872 249.731 488.24 248.547 488.24ZM251.859 491.408V518H245.139V491.408H251.859ZM268.374 518.432C266.198 518.432 264.246 518.048 262.518 517.28C260.79 516.48 259.414 515.408 258.39 514.064C257.398 512.72 256.854 511.232 256.758 509.6H263.526C263.654 510.624 264.15 511.472 265.014 512.144C265.91 512.816 267.014 513.152 268.326 513.152C269.606 513.152 270.598 512.896 271.302 512.384C272.038 511.872 272.406 511.216 272.406 510.416C272.406 509.552 271.958 508.912 271.062 508.496C270.198 508.048 268.806 507.568 266.886 507.056C264.902 506.576 263.27 506.08 261.99 505.568C260.742 505.056 259.654 504.272 258.726 503.216C257.83 502.16 257.382 500.736 257.382 498.944C257.382 497.472 257.798 496.128 258.63 494.912C259.494 493.696 260.71 492.736 262.278 492.032C263.878 491.328 265.75 490.976 267.894 490.976C271.062 490.976 273.59 491.776 275.478 493.376C277.366 494.944 278.406 497.072 278.598 499.76H272.166C272.07 498.704 271.622 497.872 270.822 497.264C270.054 496.624 269.014 496.304 267.702 496.304C266.486 496.304 265.542 496.528 264.87 496.976C264.23 497.424 263.91 498.048 263.91 498.848C263.91 499.744 264.358 500.432 265.254 500.912C266.15 501.36 267.542 501.824 269.43 502.304C271.35 502.784 272.934 503.28 274.182 503.792C275.43 504.304 276.502 505.104 277.398 506.192C278.326 507.248 278.806 508.656 278.838 510.416C278.838 511.952 278.406 513.328 277.542 514.544C276.71 515.76 275.494 516.72 273.894 517.424C272.326 518.096 270.486 518.432 268.374 518.432ZM319.912 504.128C319.912 505.088 319.848 505.952 319.72 506.72H300.28C300.44 508.64 301.112 510.144 302.296 511.232C303.48 512.32 304.936 512.864 306.664 512.864C309.16 512.864 310.936 511.792 311.992 509.648H319.24C318.472 512.208 317 514.32 314.824 515.984C312.648 517.616 309.976 518.432 306.808 518.432C304.248 518.432 301.944 517.872 299.896 516.752C297.88 515.6 296.296 513.984 295.144 511.904C294.024 509.824 293.464 507.424 293.464 504.704C293.464 501.952 294.024 499.536 295.144 497.456C296.264 495.376 297.832 493.776 299.848 492.656C301.864 491.536 304.184 490.976 306.808 490.976C309.336 490.976 311.592 491.52 313.576 492.608C315.592 493.696 317.144 495.248 318.232 497.264C319.352 499.248 319.912 501.536 319.912 504.128ZM312.952 502.208C312.92 500.48 312.296 499.104 311.08 498.08C309.864 497.024 308.376 496.496 306.616 496.496C304.952 496.496 303.544 497.008 302.392 498.032C301.272 499.024 300.584 500.416 300.328 502.208H312.952ZM357.541 491.024C360.805 491.024 363.429 492.032 365.413 494.048C367.429 496.032 368.437 498.816 368.437 502.4V518H361.717V503.312C361.717 501.232 361.189 499.648 360.133 498.56C359.077 497.44 357.637 496.88 355.813 496.88C353.989 496.88 352.533 497.44 351.445 498.56C350.389 499.648 349.861 501.232 349.861 503.312V518H343.141V503.312C343.141 501.232 342.613 499.648 341.557 498.56C340.501 497.44 339.061 496.88 337.237 496.88C335.381 496.88 333.909 497.44 332.821 498.56C331.765 499.648 331.237 501.232 331.237 503.312V518H324.517V491.408H331.237V494.624C332.101 493.504 333.205 492.624 334.549 491.984C335.925 491.344 337.429 491.024 339.061 491.024C341.141 491.024 342.997 491.472 344.629 492.368C346.261 493.232 347.525 494.48 348.421 496.112C349.285 494.576 350.533 493.344 352.165 492.416C353.829 491.488 355.621 491.024 357.541 491.024ZM381.234 495.248C382.098 494.032 383.282 493.024 384.786 492.224C386.322 491.392 388.066 490.976 390.018 490.976C392.29 490.976 394.338 491.536 396.162 492.656C398.018 493.776 399.474 495.376 400.53 497.456C401.618 499.504 402.162 501.888 402.162 504.608C402.162 507.328 401.618 509.744 400.53 511.856C399.474 513.936 398.018 515.552 396.162 516.704C394.338 517.856 392.29 518.432 390.018 518.432C388.066 518.432 386.338 518.032 384.834 517.232C383.362 516.432 382.162 515.424 381.234 514.208V530.672H374.514V491.408H381.234V495.248ZM395.298 504.608C395.298 503.008 394.962 501.632 394.29 500.48C393.65 499.296 392.786 498.4 391.698 497.792C390.642 497.184 389.49 496.88 388.242 496.88C387.026 496.88 385.874 497.2 384.786 497.84C383.73 498.448 382.866 499.344 382.194 500.528C381.554 501.712 381.234 503.104 381.234 504.704C381.234 506.304 381.554 507.696 382.194 508.88C382.866 510.064 383.73 510.976 384.786 511.616C385.874 512.224 387.026 512.528 388.242 512.528C389.49 512.528 390.642 512.208 391.698 511.568C392.786 510.928 393.65 510.016 394.29 508.832C394.962 507.648 395.298 506.24 395.298 504.608ZM414.569 496.928V509.792C414.569 510.688 414.777 511.344 415.193 511.76C415.641 512.144 416.377 512.336 417.401 512.336H420.521V518H416.297C410.633 518 407.801 515.248 407.801 509.744V496.928H404.633V491.408H407.801V484.832H414.569V491.408H420.521V496.928H414.569ZM450.494 491.408L434.03 530.576H426.878L432.638 517.328L421.982 491.408H429.518L436.382 509.984L443.342 491.408H450.494ZM456.793 518.336C455.577 518.336 454.569 517.968 453.769 517.232C453.001 516.464 452.617 515.52 452.617 514.4C452.617 513.28 453.001 512.352 453.769 511.616C454.569 510.848 455.577 510.464 456.793 510.464C457.977 510.464 458.953 510.848 459.721 511.616C460.489 512.352 460.873 513.28 460.873 514.4C460.873 515.52 460.489 516.464 459.721 517.232C458.953 517.968 457.977 518.336 456.793 518.336Z" fill="#424C5A"/>
</svg>
