<svg width="83" height="99" viewBox="0 0 83 99" fill="none" xmlns="http://www.w3.org/2000/svg">
<path fill-rule="evenodd" clip-rule="evenodd" d="M76.2535 3.67492C76.855 2.74845 76.5915 1.50984 75.665 0.908404C74.7385 0.306968 73.4999 0.570462 72.8985 1.49693L64.2463 14.8251C63.6448 15.7515 63.9083 16.9902 64.8348 17.5916C65.7613 18.193 66.9999 17.9295 67.6013 17.0031L76.2535 3.67492ZM61.7062 3.49999C61.7062 2.39542 60.8107 1.49999 59.7062 1.5C58.6016 1.5 57.7062 2.39544 57.7062 3.50001L57.7062 12.7855C57.7062 13.8901 58.6017 14.7855 59.7062 14.7855C60.8108 14.7855 61.7062 13.8901 61.7062 12.7855L61.7062 3.49999ZM82.165 13.8921C82.7769 14.8117 82.5274 16.0532 81.6078 16.6651L73.108 22.3203C72.1884 22.9322 70.9469 22.6827 70.335 21.7631C69.7231 20.8435 69.9726 19.6019 70.8923 18.9901L79.3921 13.3348C80.3117 12.723 81.5532 12.9725 82.165 13.8921ZM42.4191 35L29.6358 22H40.5654L52.6988 35H42.4191ZM55.4346 35L43.3012 22H58.9553C61.0196 22 63.018 22.7074 64.6209 24.007L78.1789 35H78.141H78.0765H78.0119H77.9473H77.8825H77.8176H77.7527H77.6877H77.6226H77.5575H77.4922H77.4269H77.3615H77.296H77.2305H77.1649H77.0992H77.0334H76.9676H76.9017H76.8358H76.7697H76.7036H76.6375H76.5712H76.505H76.4386H76.3722H76.3057H76.2392H76.1726H76.106H76.0393H75.9725H75.9057H75.8388H75.7719H75.705H75.6379H75.5709H75.5038H75.4366H75.3694H75.3021H75.2348H75.1675H75.1001H75.0327H74.9652H74.8977H74.8302H74.7626H74.695H74.6273H74.5596H74.4919H74.4241H74.3563H74.2885H74.2206H74.1528H74.0849H74.0169H73.949H73.881H73.813H73.7449H73.6769H73.6088H73.5407H73.4726H73.4044H73.3363H73.2681H73.1999H73.1317H73.0635H72.9952H72.927H72.8587H72.7905H72.7222H72.6539H72.5856H72.5174H72.4491H72.3808H72.3124H72.2441H72.1758H72.1075H72.0392H71.9709H71.9026H71.8343H71.766H71.6977H71.6294H71.5611H71.4929H71.4246H71.3564H71.2881H71.2199H71.1517H71.0835H71.0153H70.9471H70.879H70.8109H70.7427H70.6747H70.6066H70.5385H70.4705H70.4025H70.3345H70.2666H70.1986H70.1307H70.0629H69.995H69.9272H69.8594H69.7917H69.724H69.6563H69.5886H69.521H69.4535H69.3859H69.3184H69.251H69.1836H69.1162H69.0489H68.9816H68.9144H68.8472H68.78H68.7129H68.6459H68.5789H68.5119H68.445H68.3782H68.3114H68.2447H68.178H68.1114H68.0448H67.9783H67.9118H67.8454H67.7791H67.7129H67.6467H67.5805H67.5144H67.4484H67.3825H67.3166H67.2508H67.1851H67.1194H67.0538H66.9883H66.9229H66.8575H66.7922H66.727H66.6619H66.5968H66.5318H66.4669H66.4021H66.3374H66.2727H66.2082H66.1437H66.0793H66.015H65.9508H65.8866H65.8226H65.7587H65.6948H65.631H65.5674H65.5038H65.4403H65.3769H65.3136H65.2505H65.1874H65.1244H65.0615H64.9987H64.9361H64.8735H64.811H64.7487H64.6864H64.6243H64.5622H64.5003H64.4385H64.3768H64.3152H64.2537H64.1924H64.1311H64.07H64.009H63.9481H63.8874H63.8267H63.7662H63.7058H63.6455H63.5854H63.5254H63.4655H63.4057H63.346H63.2865H63.2271H63.1679H63.1088H63.0498H62.9909H62.9322H62.8737H62.8152H62.7569H62.6987H62.6407H62.5828H62.5251H62.4675H62.4101H62.3528H62.2956H62.2386H62.1817H62.125H62.0684H62.012H61.9557H61.8996H61.8437H61.7879H61.7322H61.6767H61.6214H61.5662H61.5112H61.4564H61.4017H61.3471H61.2928H61.2386H61.1845H61.1307H61.077H61.0234H60.9701H60.9169H60.8638H60.811H60.7583H60.7058H60.6535H60.6013H60.5493H60.4975H60.4459H60.3945H60.3432H60.2921H60.2412H60.1905H60.14H60.0896H60.0395H59.9895H59.9397H59.8901H59.8407H59.7915H59.7425H59.6937H59.6451H59.5966H59.5484H59.5003H59.4525H59.4049H59.3574H59.3102H59.2631H59.2163H59.1697H59.1232H59.077H59.031H58.9852H58.9396H58.8942H58.849H58.804H58.7593H58.7147H58.6704H58.6263H58.5824H58.5387H58.4952H58.452H58.409H58.3662H58.3236H58.2812H58.2391H58.1972H58.1555H58.1141H58.0728H58.0318H57.9911H57.9505H57.9102H57.8701H57.8303H57.7907H57.7513H57.7122H57.6733H57.6346H57.5962H57.5581H57.5201H57.4824H57.445H57.4078H57.3708H57.3341H57.2976H57.2614H57.2254H57.1897H57.1543H57.119H57.0841H57.0494H57.0149H56.9807H56.9468H56.9131H56.8797H56.8465H56.8136H56.7809H56.7486H56.7164H56.6846H56.653H56.6217H56.5906H56.5598H56.5293H56.4991H56.4691H56.4394H56.41H56.3808H56.3519H56.3233H56.295H56.2669H56.2392H56.2117H56.1845H56.1575H56.1309H56.1045H56.0785H56.0527H56.0272H56.0019H55.977H55.9524H55.928H55.904H55.8802H55.8567H55.8336H55.8107H55.7881H55.7658H55.7438H55.7221H55.7007H55.6796H55.6589H55.6384H55.6182H55.5983H55.5787H55.5595H55.5405H55.5219H55.5035H55.4855H55.4678H55.4504H55.4346ZM79.9706 37H80V37.0389V37.1553V37.2719V37.3887V37.5056V37.6227V37.74V37.8575V37.9751V38.093V38.211V38.3292V38.4475V38.566V38.6847V38.8036V38.9227V39.0419V39.1612V39.2808V39.4005V39.5204V39.6404V39.7606V39.8809V40.0014V40.1221V40.2429V40.3639V40.485V40.6063V40.7278V40.8494V40.9711V41.093V41.215V41.3372V41.4595V41.582V41.7046V41.8274V41.9503V42.0733V42.1965V42.3198V42.4432V42.5668V42.6906V42.8144V42.9384V43.0625V43.1867V43.3111V43.4356V43.5602V43.685V43.8098V43.9348V44.06V44.1852V44.3105V44.436V44.5616V44.6873V44.8131V44.9391V45.0651V45.1913V45.3175V45.4439V45.5704V45.697V45.8237V45.9505V46.0774V46.2044V46.3315V46.4587V46.586V46.7134V46.8409V46.9685V47.0962V47.224V47.3519V47.4798V47.6079V47.736V47.8642V47.9926V48.121V48.2494V48.378V48.5067V48.6354V48.7642V48.8931V49.0221V49.1511V49.2802V49.4094V49.5387V49.668V49.7974V49.9269V50.0564V50.186V50.3157V50.4454V50.5752V50.7051V50.835V50.965V51.0951V51.2252V51.3553V51.4855V51.6158V51.7461V51.8765V52.0069V52.1374V52.2679V52.3985V52.5291V52.6598V52.7905V52.9212V53.052V53.1829V53.3137V53.4447V53.5756V53.7066V53.8376V53.9687V54.0998V54.2309V54.362V54.4932V54.6244V54.7556V54.8869V55.0182V55.1495V55.2808V55.4122V55.5436V55.675V55.8064V55.9378V56.0692V56.2007V56.3322V56.4637V56.5952V56.7267V56.8582V56.9897V57.1212V57.2528V57.3843V57.5159V57.6474V57.779V57.9105V58.0421V58.1736V58.3051V58.4367V58.5682V58.6997V58.8312V58.9627V59.0942V59.2257V59.3572V59.4887V59.6201V59.7515V59.8829V60.0143V60.1457V60.2771V60.4084V60.5397V60.671V60.8022V60.9335V61.0647V61.1959V61.327V61.4581V61.5892V61.7203V61.8513V61.9823V62.1132V62.2441V62.375V62.5058V62.6366V62.7674V62.8981V63.0287V63.1594V63.2899V63.4205V63.5509V63.6813V63.8117V63.942V64.0723V64.2025V64.3327V64.4628V64.5928V64.7228V64.8527V64.9826V65.1124V65.2421V65.3718V65.5014V65.6309V65.7604V65.8898V66.0191V66.1484V66.2776V66.4067V66.5357V66.6647V66.7935V66.9224V67.0511V67.1797V67.3083V67.4368V67.5652V67.6935V67.8217V67.9498V68.0779V68.2058V68.3337V68.4615V68.5892V68.7168V68.8443V68.9716V69.0989V69.2262V69.3532V69.4802V69.6071V69.7339V69.8606V69.9872V70.1137V70.2401V70.3663V70.4925V70.6185V70.7444V70.8702V70.9959V71.1215V71.247V71.3723V71.4976V71.6227V71.7477V71.8725V71.9973V72.1219V72.2464V72.3707V72.495V72.6191V72.743V72.8669V72.9906V73.1142V73.2376V73.3609V73.4841V73.6071V73.73V73.8528V73.9754V74.0978V74.2201V74.3423V74.4643V74.5862V74.7079V74.8295V74.951V75.0722V75.1934V75.3143V75.4352V75.5558V75.6763V75.7966V75.9168V76.0368V76.1567V76.2764V76.3959V76.5153V76.6345V76.7535V76.8724V76.9911V77.1096V77.2279V77.3461V77.4641V77.5819V77.6996V77.817V77.9343V78.0514V78.1684V78.2851V78.4017V78.518V78.6342V78.7502V78.866V78.9816V79.0971V79.2123V79.3274V79.4422V79.5569V79.6713V79.7856V79.8997V80.0135V80.1272V80.2406V80.3539V80.467V80.5798V80.6925V80.8049V80.9171V81.0291V81.1409V81.2525V81.3639V81.4751V81.586V81.6967V81.8073V81.9176V82.0276V82.1375V82.2471V82.3565V82.4657V82.5747V82.6834V82.7919V82.9002V83.0082V83.116V83.2236V83.3309V83.438V83.5449V83.6516V83.7579V83.8641V83.97V84.0757V84.1811V84.2863V84.3913V84.4959V84.6004V84.7046V84.8085V84.9122V85.0157V85.1189V85.2218V85.3245V85.4269V85.5291V85.631V85.7327V85.8341V85.9352V86.0361V86.1367V86.237V86.3371V86.4369V86.5364V86.6357V86.7347V86.8334V86.9318V87.03V87.1279V87.2255V87.3228V87.4199V87.5167V87.6132V87.7094V87.8053V87.901V87.9963V88.0914V88.1862V88.2807V88.3749V88.4688V88.5624V88.6557V88.7488V88.8415V88.934V89.0261V89.1179V89.2095V89.3007V89.3916V89.4823V89.5726V89.6626V89.7523V89.8417V89.9308V90.0196V90.1081V90.1962V90.2841V90.3716V90.4588V90.5457V90.6323V90.7185V90.8044V90.8901V90.9753V91.0603V91.1449V91.2292V91.3132V91.3969V91.4802V91.5632V91.6458V91.7282V91.8101V91.8918V91.9731V92.0541V92.1347V92.215V92.295V92.3746V92.4538V92.5328V92.6114V92.6896V92.7675V92.845V92.9222V92.999V93.0755V93.1516V93.2274V93.3028V93.3778V93.4525V93.5269V93.6008V93.6744V93.7477V93.8206V93.8931V93.9652V94.037V94.1084V94.1795V94.2502V94.3205V94.3904V94.4599V94.5291V94.5979V94.6663V94.7344V94.8021V94.8693V94.9362V95.0028C80 97.2112 78.2099 99 76 99H18V37H41V51C41 53.2091 42.7909 55 45 55H52C54.2091 55 56 53.2091 56 51V37H56.0019H56.0272H56.0527H56.0785H56.1045H56.1309H56.1575H56.1845H56.2117H56.2392H56.2669H56.295H56.3233H56.3519H56.3808H56.41H56.4394H56.4691H56.4991H56.5293H56.5598H56.5906H56.6217H56.653H56.6846H56.7164H56.7486H56.7809H56.8136H56.8465H56.8797H56.9131H56.9468H56.9807H57.0149H57.0494H57.0841H57.119H57.1543H57.1897H57.2254H57.2614H57.2976H57.3341H57.3708H57.4078H57.445H57.4824H57.5201H57.5581H57.5962H57.6346H57.6733H57.7122H57.7513H57.7907H57.8303H57.8701H57.9102H57.9505H57.9911H58.0318H58.0728H58.1141H58.1555H58.1972H58.2391H58.2812H58.3236H58.3662H58.409H58.452H58.4952H58.5387H58.5824H58.6263H58.6704H58.7147H58.7593H58.804H58.849H58.8942H58.9396H58.9852H59.031H59.077H59.1232H59.1697H59.2163H59.2631H59.3102H59.3574H59.4049H59.4525H59.5003H59.5484H59.5966H59.6451H59.6937H59.7425H59.7915H59.8407H59.8901H59.9397H59.9895H60.0395H60.0896H60.14H60.1905H60.2412H60.2921H60.3432H60.3945H60.4459H60.4975H60.5493H60.6013H60.6535H60.7058H60.7583H60.811H60.8638H60.9169H60.9701H61.0234H61.077H61.1307H61.1845H61.2386H61.2928H61.3471H61.4017H61.4564H61.5112H61.5662H61.6214H61.6767H61.7322H61.7879H61.8437H61.8996H61.9557H62.012H62.0684H62.125H62.1817H62.2386H62.2956H62.3528H62.4101H62.4675H62.5251H62.5828H62.6407H62.6987H62.7569H62.8152H62.8737H62.9322H62.9909H63.0498H63.1088H63.1679H63.2271H63.2865H63.346H63.4057H63.4655H63.5254H63.5854H63.6455H63.7058H63.7662H63.8267H63.8874H63.9481H64.009H64.07H64.1311H64.1924H64.2537H64.3152H64.3768H64.4385H64.5003H64.5622H64.6243H64.6864H64.7487H64.811H64.8735H64.9361H64.9987H65.0615H65.1244H65.1874H65.2505H65.3136H65.3769H65.4403H65.5038H65.5674H65.631H65.6948H65.7587H65.8226H65.8866H65.9508H66.015H66.0793H66.1437H66.2082H66.2727H66.3374H66.4021H66.4669H66.5318H66.5968H66.6619H66.727H66.7922H66.8575H66.9229H66.9883H67.0538H67.1194H67.1851H67.2508H67.3166H67.3825H67.4484H67.5144H67.5805H67.6467H67.7129H67.7791H67.8454H67.9118H67.9783H68.0448H68.1114H68.178H68.2447H68.3114H68.3782H68.445H68.5119H68.5789H68.6459H68.7129H68.78H68.8472H68.9144H68.9816H69.0489H69.1162H69.1836H69.251H69.3184H69.3859H69.4535H69.521H69.5886H69.6563H69.724H69.7917H69.8594H69.9272H69.995H70.0629H70.1307H70.1986H70.2666H70.3345H70.4025H70.4705H70.5385H70.6066H70.6747H70.7427H70.8109H70.879H70.9471H71.0153H71.0835H71.1517H71.2199H71.2881H71.3564H71.4246H71.4929H71.5611H71.6294H71.6977H71.766H71.8343H71.9026H71.9709H72.0392H72.1075H72.1758H72.2441H72.3124H72.3808H72.4491H72.5174H72.5856H72.6539H72.7222H72.7905H72.8587H72.927H72.9952H73.0635H73.1317H73.1999H73.2681H73.3363H73.4044H73.4726H73.5407H73.6088H73.6769H73.7449H73.813H73.881H73.949H74.0169H74.0849H74.1528H74.2206H74.2885H74.3563H74.4241H74.4919H74.5596H74.6273H74.695H74.7626H74.8302H74.8977H74.9652H75.0327H75.1001H75.1675H75.2348H75.3021H75.3694H75.4366H75.5038H75.5709H75.6379H75.705H75.7719H75.8388H75.9057H75.9725H76.0393H76.106H76.1726H76.2392H76.3057H76.3722H76.4386H76.505H76.5712H76.6375H76.7036H76.7697H76.8358H76.9017H76.9676H77.0334H77.0992H77.1649H77.2305H77.296H77.3615H77.4269H77.4922H77.5575H77.6226H77.6877H77.7527H77.8176H77.8825H77.9473H78.0119H78.0765H78.141H78.2055H78.2698H78.3341H78.3982H78.4623H78.5263H78.5902H78.654H78.7177H78.7813H78.8448H78.9082H78.9715H79.0347H79.0979H79.1609H79.2238H79.2866H79.3493H79.4119H79.4744H79.5368H79.5991H79.6613H79.7234H79.7853H79.8472H79.9089H79.9706ZM16 36.4684V97.5858L2.63604 84.2218C0.946733 82.5325 0 80.2623 0 77.8774V77.8167V77.7556V77.6941V77.6322V77.5699V77.5072V77.4441V77.3807V77.3168V77.2526V77.188V77.123V77.0576V76.9919V76.9258V76.8593V76.7924V76.7252V76.6575V76.5896V76.5212V76.4525V76.3834V76.3139V76.2441V76.1739V76.1033V76.0324V75.9611V75.8894V75.8174V75.7451V75.6724V75.5993V75.5258V75.4521V75.3779V75.3034V75.2286V75.1534V75.0779V75.002V74.9258V74.8492V74.7723V74.695V74.6174V74.5395V74.4612V74.3826V74.3037V74.2244V74.1448V74.0648V73.9846V73.9039V73.823V73.7417V73.6601V73.5782V73.496V73.4134V73.3305V73.2473V73.1638V73.0799V72.9958V72.9113V72.8265V72.7413V72.6559V72.5702V72.4841V72.3978V72.3111V72.2241V72.1368V72.0492V71.9614V71.8732V71.7847V71.6959V71.6068V71.5174V71.4277V71.3377V71.2474V71.1568V71.066V70.9748V70.8833V70.7916V70.6996V70.6073V70.5147V70.4218V70.3286V70.2352V70.1414V70.0474V69.9531V69.8586V69.7637V69.6686V69.5732V69.4775V69.3816V69.2854V69.1889V69.0922V68.9952V68.8979V68.8003V68.7025V68.6045V68.5061V68.4075V68.3087V68.2096V68.1102V68.0106V67.9107V67.8106V67.7102V67.6096V67.5087V67.4075V67.3062V67.2045V67.1027V67.0006V66.8982V66.7956V66.6928V66.5897V66.4864V66.3828V66.279V66.175V66.0707V65.9662V65.8615V65.7565V65.6514V65.5459V65.4403V65.3344V65.2283V65.122V65.0155V64.9087V64.8017V64.6945V64.5871V64.4795V64.3716V64.2636V64.1553V64.0468V63.9381V63.8292V63.7201V63.6108V63.5012V63.3915V63.2816V63.1714V63.0611V62.9505V62.8398V62.7289V62.6177V62.5064V62.3948V62.2831V62.1712V62.0591V61.9468V61.8343V61.7216V61.6088V61.4957V61.3825V61.2691V61.1555V61.0417V60.9278V60.8136V60.6993V60.5848V60.4701V60.3553V60.2403V60.1251V60.0098V59.8942V59.7785V59.6627V59.5466V59.4305V59.3141V59.1976V59.0809V58.9641V58.8471V58.7299V58.6126V58.4951V58.3775V58.2597V58.1418V58.0237V57.9055V57.7871V57.6686V57.5499V57.4311V57.3121V57.193V57.0738V56.9544V56.8349V56.7152V56.5954V56.4754V56.3554V56.2352V56.1148V55.9943V55.8737V55.753V55.6321V55.5111V55.39V55.2688V55.1474V55.0259V54.9043V54.7826V54.6608V54.5388V54.4167V54.2945V54.1722V54.0498V53.9273V53.8046V53.6819V53.559V53.436V53.3129V53.1898V53.0665V52.9431V52.8196V52.696V52.5723V52.4485V52.3246V52.2006V52.0766V51.9524V51.8281V51.7038V51.5793V51.4548V51.3302V51.2055V51.0807V50.9558V50.8308V50.7058V50.5807V50.4555V50.3302V50.2048V50.0794V49.9539V49.8283V49.7026V49.5769V49.4511V49.3252V49.1993V49.0732V48.9472V48.821V48.6948V48.5686V48.4422V48.3158V48.1894V48.0629V47.9363V47.8097V47.683V47.5563V47.4295V47.3027V47.1758V47.0489V46.9219V46.7949V46.6678V46.5407V46.4136V46.2864V46.1591V46.0319V45.9045V45.7772V45.6498V45.5224V45.3949V45.2674V45.1399V45.0124V44.8848V44.7572V44.6295V44.5019V44.3742V44.2465V44.1187V43.991V43.8632V43.7354V43.6076V43.4798V43.3519V43.2241V43.0962V42.9683V42.8404V42.7125V42.5846V42.4567V42.3288V42.2008V42.0729V41.9449V41.817V41.6891V41.5611V41.4332V41.3053V41.1773V41.0494V40.9215V40.7936V40.6657V40.5378V40.4099V40.282V40.1542V40.0263V39.8985V39.7707V39.6429V39.5151V39.3873V39.2596V39.1319V39.0042V38.8765V38.7489V38.6213V38.4937V38.3662V38.2386V38.1112V37.9837V37.8563V37.7289V37.6015V37.4742V37.3469V37.2197V37.0925V36.9654V36.8382V36.7112V36.5842V36.4572V36.3303V36.2034V36.0766V35.9498V35.8231V35.6964V35.5698V35.4432V35.3167V35.1903V35.0639V34.9375V34.8113V34.6851V34.5589V34.4329V34.3069V34.1809V34.055V33.9292V33.8035V33.6778V33.5523V33.4268V33.3013V33.176V33.0507V32.9255V32.8003V32.6753V32.5503V32.4255V32.3007V32.176V32.0513V31.9268V31.8024V31.678V31.5537V31.4296V31.3055V31.1815V31.0576V30.9338V30.8102V30.6866V30.5631V30.4397V30.3164V30.1932V30.0701V29.9472V29.8243V29.7016V29.5789V29.4564V29.334V29.2117V29.0895V28.9674V28.8454V28.7236V28.6019V28.4802V28.3588V28.2374V28.1162V27.9951V27.8741V27.7532V27.6325V27.5119V27.3914V27.2711V27.1509V27.0308V26.9108V26.791V26.6714V26.5519V26.4325V26.3132V26.1941V26.0752V25.9563V25.8377V25.7191V25.6008V25.4825V25.3645V25.2465V25.1288V25.0111V24.8937V24.7764V24.6592V24.5422V24.4254V24.3087V24.1922V24.0758V23.9596V23.8436V23.7278V23.6121V23.4966V23.3812V23.266V23.151V23.135L9.99585 31.4649L14.5358 35.2482L15.8747 36.364L16 36.4684ZM1.82693 22H1.76205L11.2762 29.9285L15.8162 33.7118L17.1551 34.8275L17.3621 35H39.6142L26.8309 22H26.8153H26.7974H26.7792H26.7606H26.7417H26.7225H26.7029H26.683H26.6627H26.6421H26.6212H26.5999H26.5783H26.5564H26.5341H26.5115H26.4886H26.4654H26.4418H26.4179H26.3937H26.3692H26.3443H26.3191H26.2936H26.2678H26.2417H26.2152H26.1884H26.1613H26.1339H26.1062H26.0782H26.0499H26.0212H25.9923H25.963H25.9335H25.9036H25.8734H25.8429H25.8122H25.7811H25.7497H25.718H25.686H25.6538H25.6212H25.5883H25.5552H25.5217H25.488H25.454H25.4196H25.385H25.3501H25.3149H25.2795H25.2437H25.2077H25.1714H25.1348H25.0979H25.0607H25.0233H24.9856H24.9476H24.9093H24.8708H24.832H24.7929H24.7535H24.7139H24.674H24.6339H24.5934H24.5528H24.5118H24.4706H24.4291H24.3874H24.3454H24.3031H24.2606H24.2178H24.1748H24.1315H24.0879H24.0441H24.0001H23.9558H23.9113H23.8665H23.8214H23.7761H23.7306H23.6848H23.6388H23.5925H23.546H23.4993H23.4523H23.4051H23.3576H23.3099H23.262H23.2138H23.1654H23.1168H23.0679H23.0188H22.9695H22.92H22.8702H22.8202H22.77H22.7195H22.6688H22.6179H22.5668H22.5155H22.464H22.4122H22.3602H22.308H22.2556H22.203H22.1501H22.0971H22.0438H21.9903H21.9367H21.8828H21.8287H21.7744H21.7199H21.6652H21.6103H21.5552H21.4999H21.4444H21.3887H21.3328H21.2767H21.2204H21.164H21.1073H21.0504H20.9934H20.9361H20.8787H20.8211H20.7633H20.7053H20.6471H20.5888H20.5303H20.4715H20.4127H20.3536H20.2943H20.2349H20.1753H20.1155H20.0556H19.9955H19.9352H19.8747H19.8141H19.7533H19.6923H19.6312H19.5699H19.5084H19.4468H19.385H19.3231H19.261H19.1987H19.1363H19.0737H19.0109H18.9481H18.885H18.8218H18.7585H18.695H18.6313H18.5675H18.5036H18.4395H18.3753H18.3109H18.2464H18.1817H18.1169H18.052H17.9869H17.9217H17.8563H17.7908H17.7252H17.6594H17.5935H17.5275H17.4614H17.3951H17.3287H17.2621H17.1954H17.1287H17.0617H16.9947H16.9275H16.8603H16.7929H16.7253H16.6577H16.5899H16.5221H16.4541H16.386H16.3178H16.2495H16.181H16.1125H16.0438H15.9751H15.9062H15.8372H15.7682H15.699H15.6297H15.5603H15.4908H15.4212H15.3516H15.2818H15.2119H15.142H15.0719H15.0017H14.9315H14.8612H14.7907H14.7202H14.6496H14.5789H14.5082H14.4373H14.3664H14.2953H14.2242H14.153H14.0818H14.0104H13.939H13.8675H13.7959H13.7243H13.6526H13.5808H13.5089H13.437H13.365H13.2929H13.2208H13.1486H13.0763H13.004H12.9316H12.8592H12.7867H12.7141H12.6415H12.5688H12.496H12.4232H12.3504H12.2775H12.2045H12.1315H12.0585H11.9854H11.9122H11.839H11.7658H11.6925H11.6191H11.5458H11.4723H11.3989H11.3254H11.2518H11.1783H11.1047H11.031H10.9573H10.8836H10.8099H10.7361H10.6623H10.5885H10.5146H10.4407H10.3668H10.2929H10.2189H10.1449H10.0709H9.99687H9.92282H9.84875H9.77467H9.70057H9.62645H9.55232H9.47818H9.40402H9.32985H9.25568H9.18149H9.1073H9.03309H8.95889H8.88468H8.81046H8.73624H8.66202H8.5878H8.51358H8.43936H8.36514H8.29093H8.21672H8.14252H8.06832H7.99413H7.91995H7.84578H7.77162H7.69747H7.62333H7.54921H7.47511H7.40102H7.32694H7.25289H7.17885H7.10484H7.03084H6.95687H6.88292H6.809H6.7351H6.66123H6.58738H6.51357H6.43978H6.36602H6.2923H6.21861H6.14495H6.07133H5.99774H5.92419H5.85068H5.7772H5.70377H5.63038H5.55703H5.48372H5.41046H5.33724H5.26407H5.19095H5.11788H5.04485H4.97188H4.89895H4.82608H4.75327H4.68051H4.6078H4.53515H4.46256H4.39003H4.31755H4.24514H4.17279H4.10051H4.02829H3.95613H3.88404H3.81202H3.74006H3.66817H3.59636H3.52462H3.45294H3.38135H3.30982H3.23838H3.16701H3.09571H3.0245H2.95337H2.88231H2.81134H2.74045H2.66965H2.59893H2.5283H2.45775H2.38729H2.31692H2.24664H2.17646H2.10636H2.03636H1.96646H1.89665H1.82693ZM43 51V37H54V51C54 52.1046 53.1046 53 52 53H45C43.8954 53 43 52.1046 43 51ZM63 77C63 84.732 56.732 91 49 91C41.268 91 35 84.732 35 77C35 69.268 41.268 63 49 63C56.732 63 63 69.268 63 77ZM47 81L46 68H52L51 81H47ZM49 86C50.1046 86 51 85.1046 51 84C51 82.8954 50.1046 82 49 82C47.8954 82 47 82.8954 47 84C47 85.1046 47.8954 86 49 86Z" fill="#212121"/>
</svg>
