<svg width="466" height="482" viewBox="0 0 466 482" fill="none" xmlns="http://www.w3.org/2000/svg">
<g opacity="0.14">
<path d="M58.25 349.5H203.875V378.625H58.25V349.5Z" fill="#424C5A"/>
<path d="M58.25 262.125H203.875V291.25H58.25V262.125Z" fill="#424C5A"/>
<path d="M378.625 203.875H87.375C79.6506 203.875 72.2425 200.806 66.7805 195.344C61.3185 189.882 58.25 182.474 58.25 174.75V87.375C58.25 79.6506 61.3185 72.2425 66.7805 66.7805C72.2425 61.3185 79.6506 58.25 87.375 58.25H378.625C386.349 58.25 393.757 61.3185 399.219 66.7805C404.681 72.2425 407.75 79.6506 407.75 87.375V174.75C407.75 182.474 404.681 189.882 399.219 195.344C393.757 200.806 386.349 203.875 378.625 203.875ZM87.375 87.375V174.75H378.625V87.375H87.375Z" fill="#424C5A"/>
<path d="M378.625 407.75H291.25C283.526 407.75 276.118 404.681 270.656 399.219C265.194 393.757 262.125 386.349 262.125 378.625V291.25C262.125 283.526 265.194 276.118 270.656 270.656C276.118 265.194 283.526 262.125 291.25 262.125H378.625C386.349 262.125 393.757 265.194 399.219 270.656C404.681 276.118 407.75 283.526 407.75 291.25V378.625C407.75 386.349 404.681 393.757 399.219 399.219C393.757 404.681 386.349 407.75 378.625 407.75ZM291.25 291.25V378.625H378.625V291.25H291.25Z" fill="#424C5A"/>
</g>
<path d="M120.867 459.112C122.283 459.376 123.447 460.084 124.359 461.236C125.271 462.388 125.727 463.708 125.727 465.196C125.727 466.54 125.391 467.728 124.719 468.76C124.071 469.768 123.123 470.56 121.875 471.136C120.627 471.712 119.151 472 117.447 472H106.611V446.872H116.979C118.683 446.872 120.147 447.148 121.371 447.7C122.619 448.252 123.555 449.02 124.179 450.004C124.827 450.988 125.151 452.104 125.151 453.352C125.151 454.816 124.755 456.04 123.963 457.024C123.195 458.008 122.163 458.704 120.867 459.112ZM111.651 457.24H116.259C117.459 457.24 118.383 456.976 119.031 456.448C119.679 455.896 120.003 455.116 120.003 454.108C120.003 453.1 119.679 452.32 119.031 451.768C118.383 451.216 117.459 450.94 116.259 450.94H111.651V457.24ZM116.727 467.896C117.951 467.896 118.899 467.608 119.571 467.032C120.267 466.456 120.615 465.64 120.615 464.584C120.615 463.504 120.255 462.664 119.535 462.064C118.815 461.44 117.843 461.128 116.619 461.128H111.651V467.896H116.727ZM134.784 445.36V472H129.744V445.36H134.784ZM148.619 472.324C146.699 472.324 144.971 471.904 143.435 471.064C141.899 470.2 140.687 468.988 139.799 467.428C138.935 465.868 138.503 464.068 138.503 462.028C138.503 459.988 138.947 458.188 139.835 456.628C140.747 455.068 141.983 453.868 143.543 453.028C145.103 452.164 146.843 451.732 148.763 451.732C150.683 451.732 152.423 452.164 153.983 453.028C155.543 453.868 156.767 455.068 157.655 456.628C158.567 458.188 159.023 459.988 159.023 462.028C159.023 464.068 158.555 465.868 157.619 467.428C156.707 468.988 155.459 470.2 153.875 471.064C152.315 471.904 150.563 472.324 148.619 472.324ZM148.619 467.932C149.531 467.932 150.383 467.716 151.175 467.284C151.991 466.828 152.639 466.156 153.119 465.268C153.599 464.38 153.839 463.3 153.839 462.028C153.839 460.132 153.335 458.68 152.327 457.672C151.343 456.64 150.131 456.124 148.691 456.124C147.251 456.124 146.039 456.64 145.055 457.672C144.095 458.68 143.615 460.132 143.615 462.028C143.615 463.924 144.083 465.388 145.019 466.42C145.979 467.428 147.179 467.932 148.619 467.932ZM170.532 451.732C172.02 451.732 173.328 452.032 174.456 452.632C175.584 453.208 176.472 453.964 177.12 454.9V452.056H182.196V472.144C182.196 473.992 181.824 475.636 181.08 477.076C180.336 478.54 179.22 479.692 177.732 480.532C176.244 481.396 174.444 481.828 172.332 481.828C169.5 481.828 167.172 481.168 165.348 479.848C163.548 478.528 162.528 476.728 162.288 474.448H167.292C167.556 475.36 168.12 476.08 168.984 476.608C169.872 477.16 170.94 477.436 172.188 477.436C173.652 477.436 174.84 476.992 175.752 476.104C176.664 475.24 177.12 473.92 177.12 472.144V469.048C176.472 469.984 175.572 470.764 174.42 471.388C173.292 472.012 171.996 472.324 170.532 472.324C168.852 472.324 167.316 471.892 165.924 471.028C164.532 470.164 163.428 468.952 162.612 467.392C161.82 465.808 161.424 463.996 161.424 461.956C161.424 459.94 161.82 458.152 162.612 456.592C163.428 455.032 164.52 453.832 165.888 452.992C167.28 452.152 168.828 451.732 170.532 451.732ZM177.12 462.028C177.12 460.804 176.88 459.76 176.4 458.896C175.92 458.008 175.272 457.336 174.456 456.88C173.64 456.4 172.764 456.16 171.828 456.16C170.892 456.16 170.028 456.388 169.236 456.844C168.444 457.3 167.796 457.972 167.292 458.86C166.812 459.724 166.572 460.756 166.572 461.956C166.572 463.156 166.812 464.212 167.292 465.124C167.796 466.012 168.444 466.696 169.236 467.176C170.052 467.656 170.916 467.896 171.828 467.896C172.764 467.896 173.64 467.668 174.456 467.212C175.272 466.732 175.92 466.06 176.4 465.196C176.88 464.308 177.12 463.252 177.12 462.028ZM198.253 449.68C197.365 449.68 196.621 449.404 196.021 448.852C195.445 448.276 195.157 447.568 195.157 446.728C195.157 445.888 195.445 445.192 196.021 444.64C196.621 444.064 197.365 443.776 198.253 443.776C199.141 443.776 199.873 444.064 200.449 444.64C201.049 445.192 201.349 445.888 201.349 446.728C201.349 447.568 201.049 448.276 200.449 448.852C199.873 449.404 199.141 449.68 198.253 449.68ZM200.737 452.056V472H195.697V452.056H200.737ZM213.348 472.324C211.716 472.324 210.252 472.036 208.956 471.46C207.66 470.86 206.628 470.056 205.86 469.048C205.116 468.04 204.708 466.924 204.636 465.7H209.712C209.808 466.468 210.18 467.104 210.828 467.608C211.5 468.112 212.328 468.364 213.312 468.364C214.272 468.364 215.016 468.172 215.544 467.788C216.096 467.404 216.372 466.912 216.372 466.312C216.372 465.664 216.036 465.184 215.364 464.872C214.716 464.536 213.672 464.176 212.232 463.792C210.744 463.432 209.52 463.06 208.56 462.676C207.624 462.292 206.808 461.704 206.112 460.912C205.44 460.12 205.104 459.052 205.104 457.708C205.104 456.604 205.416 455.596 206.04 454.684C206.688 453.772 207.6 453.052 208.776 452.524C209.976 451.996 211.38 451.732 212.988 451.732C215.364 451.732 217.26 452.332 218.676 453.532C220.092 454.708 220.872 456.304 221.016 458.32H216.192C216.12 457.528 215.784 456.904 215.184 456.448C214.608 455.968 213.828 455.728 212.844 455.728C211.932 455.728 211.224 455.896 210.72 456.232C210.24 456.568 210 457.036 210 457.636C210 458.308 210.336 458.824 211.008 459.184C211.68 459.52 212.724 459.868 214.14 460.228C215.58 460.588 216.768 460.96 217.704 461.344C218.64 461.728 219.444 462.328 220.116 463.144C220.812 463.936 221.172 464.992 221.196 466.312C221.196 467.464 220.872 468.496 220.224 469.408C219.6 470.32 218.688 471.04 217.488 471.568C216.312 472.072 214.932 472.324 213.348 472.324ZM252.452 461.596C252.452 462.316 252.404 462.964 252.308 463.54H237.728C237.848 464.98 238.352 466.108 239.24 466.924C240.128 467.74 241.22 468.148 242.516 468.148C244.388 468.148 245.72 467.344 246.512 465.736H251.948C251.372 467.656 250.268 469.24 248.636 470.488C247.004 471.712 245 472.324 242.624 472.324C240.704 472.324 238.976 471.904 237.44 471.064C235.928 470.2 234.74 468.988 233.876 467.428C233.036 465.868 232.616 464.068 232.616 462.028C232.616 459.964 233.036 458.152 233.876 456.592C234.716 455.032 235.892 453.832 237.404 452.992C238.916 452.152 240.656 451.732 242.624 451.732C244.52 451.732 246.212 452.14 247.7 452.956C249.212 453.772 250.376 454.936 251.192 456.448C252.032 457.936 252.452 459.652 252.452 461.596ZM247.232 460.156C247.208 458.86 246.74 457.828 245.828 457.06C244.916 456.268 243.8 455.872 242.48 455.872C241.232 455.872 240.176 456.256 239.312 457.024C238.472 457.768 237.956 458.812 237.764 460.156H247.232ZM280.898 451.768C283.346 451.768 285.314 452.524 286.802 454.036C288.314 455.524 289.07 457.612 289.07 460.3V472H284.03V460.984C284.03 459.424 283.634 458.236 282.842 457.42C282.05 456.58 280.97 456.16 279.602 456.16C278.234 456.16 277.142 456.58 276.326 457.42C275.534 458.236 275.138 459.424 275.138 460.984V472H270.098V460.984C270.098 459.424 269.702 458.236 268.91 457.42C268.118 456.58 267.038 456.16 265.67 456.16C264.278 456.16 263.174 456.58 262.358 457.42C261.566 458.236 261.17 459.424 261.17 460.984V472H256.13V452.056H261.17V454.468C261.818 453.628 262.646 452.968 263.654 452.488C264.686 452.008 265.814 451.768 267.038 451.768C268.598 451.768 269.99 452.104 271.214 452.776C272.438 453.424 273.386 454.36 274.058 455.584C274.706 454.432 275.642 453.508 276.866 452.812C278.114 452.116 279.458 451.768 280.898 451.768ZM298.893 454.936C299.541 454.024 300.429 453.268 301.557 452.668C302.709 452.044 304.017 451.732 305.481 451.732C307.185 451.732 308.721 452.152 310.089 452.992C311.481 453.832 312.573 455.032 313.365 456.592C314.181 458.128 314.589 459.916 314.589 461.956C314.589 463.996 314.181 465.808 313.365 467.392C312.573 468.952 311.481 470.164 310.089 471.028C308.721 471.892 307.185 472.324 305.481 472.324C304.017 472.324 302.721 472.024 301.593 471.424C300.489 470.824 299.589 470.068 298.893 469.156V481.504H293.853V452.056H298.893V454.936ZM309.441 461.956C309.441 460.756 309.189 459.724 308.685 458.86C308.205 457.972 307.557 457.3 306.741 456.844C305.949 456.388 305.085 456.16 304.149 456.16C303.237 456.16 302.373 456.4 301.557 456.88C300.765 457.336 300.117 458.008 299.613 458.896C299.133 459.784 298.893 460.828 298.893 462.028C298.893 463.228 299.133 464.272 299.613 465.16C300.117 466.048 300.765 466.732 301.557 467.212C302.373 467.668 303.237 467.896 304.149 467.896C305.085 467.896 305.949 467.656 306.741 467.176C307.557 466.696 308.205 466.012 308.685 465.124C309.189 464.236 309.441 463.18 309.441 461.956ZM324.12 456.196V465.844C324.12 466.516 324.276 467.008 324.588 467.32C324.924 467.608 325.476 467.752 326.244 467.752H328.584V472H325.416C321.168 472 319.044 469.936 319.044 465.808V456.196H316.668V452.056H319.044V447.124H324.12V452.056H328.584V456.196H324.12ZM351.289 452.056L338.941 481.432H333.577L337.897 471.496L329.905 452.056H335.557L340.705 465.988L345.925 452.056H351.289ZM356.237 472.252C355.325 472.252 354.569 471.976 353.969 471.424C353.393 470.848 353.105 470.14 353.105 469.3C353.105 468.46 353.393 467.764 353.969 467.212C354.569 466.636 355.325 466.348 356.237 466.348C357.125 466.348 357.857 466.636 358.433 467.212C359.009 467.764 359.297 468.46 359.297 469.3C359.297 470.14 359.009 470.848 358.433 471.424C357.857 471.976 357.125 472.252 356.237 472.252Z" fill="#6B6B6B" fill-opacity="0.39"/>
</svg>
