<svg width="18" height="17" viewBox="0 0 18 17" fill="none" xmlns="http://www.w3.org/2000/svg">
<path d="M14.5525 7.03339C14.5523 7.1495 14.506 7.26077 14.4238 7.3428C14.3416 7.42482 14.2303 7.47089 14.1142 7.47089H12.8958V8.25255H14.1142C14.1732 8.24998 14.2321 8.25937 14.2874 8.28018C14.3426 8.30098 14.3931 8.33276 14.4358 8.3736C14.4784 8.41444 14.5124 8.4635 14.5356 8.51781C14.5588 8.57213 14.5707 8.63058 14.5707 8.68964C14.5707 8.7487 14.5588 8.80715 14.5356 8.86146C14.5124 8.91578 14.4784 8.96483 14.4358 9.00567C14.3931 9.04651 14.3426 9.07829 14.2874 9.0991C14.2321 9.1199 14.1732 9.1293 14.1142 9.12672H12.4583C12.3429 9.12584 12.2325 9.0795 12.1511 8.99776C12.0697 8.91601 12.0238 8.80544 12.0233 8.69005V5.37672C12.0233 5.13755 12.2192 4.93922 12.4608 4.93922H14.1175C14.2335 4.93955 14.3447 4.98596 14.4265 5.06824C14.5083 5.15053 14.5541 5.26194 14.5537 5.37797C14.5534 5.494 14.507 5.60515 14.4247 5.68696C14.3424 5.76878 14.231 5.81455 14.115 5.81422H12.8967V6.59589H14.115C14.3575 6.59589 14.5533 6.79339 14.5533 7.03339H14.5525ZM11.1375 9.10422C11.0928 9.11836 11.0461 9.12539 10.9992 9.12505C10.9306 9.12657 10.8626 9.11163 10.801 9.08147C10.7394 9.05131 10.6859 9.00682 10.645 8.95172L8.94832 6.64839V8.69005C8.93999 8.80005 8.89041 8.90284 8.80952 8.97784C8.72863 9.05283 8.62239 9.09451 8.51207 9.09451C8.40176 9.09451 8.29552 9.05283 8.21463 8.97784C8.13373 8.90284 8.08416 8.80005 8.07582 8.69005V5.37672C8.0756 5.2615 8.12111 5.15089 8.20235 5.06918C8.28359 4.98747 8.39393 4.94133 8.50916 4.94089C8.64416 4.94089 8.76916 5.01255 8.85249 5.11672L10.5625 7.42922V5.37672C10.5625 5.13755 10.7583 4.93922 11 4.93922C11.2392 4.93922 11.4375 5.13755 11.4375 5.37672V8.69005C11.4374 8.78186 11.4083 8.8713 11.3545 8.94565C11.3006 9.02 11.2247 9.07549 11.1375 9.10422ZM7.01249 9.12672C6.89696 9.12606 6.78636 9.07982 6.70474 8.99805C6.62313 8.91627 6.57709 8.80559 6.57666 8.69005V5.37672C6.57666 5.13755 6.77332 4.93922 7.01416 4.93922C7.25499 4.93922 7.45082 5.13755 7.45082 5.37672V8.69005C7.45016 8.80595 7.40372 8.91689 7.32161 8.99868C7.2395 9.08048 7.12839 9.1265 7.01249 9.12672ZM5.73749 9.12672H4.08166C3.96597 9.12607 3.8552 9.07988 3.77331 8.99815C3.69143 8.91642 3.64503 8.80574 3.64416 8.69005V5.37672C3.65372 5.26728 3.70395 5.1654 3.78494 5.09117C3.86593 5.01695 3.9718 4.97578 4.08166 4.97578C4.19151 4.97578 4.29738 5.01695 4.37837 5.09117C4.45936 5.1654 4.50959 5.26728 4.51916 5.37672V8.25172H5.73916C5.85519 8.25172 5.96647 8.29781 6.04852 8.37986C6.13056 8.46191 6.17666 8.57319 6.17666 8.68922C6.17666 8.80525 6.13056 8.91653 6.04852 8.99858C5.96647 9.08063 5.85519 9.12672 5.73916 9.12672H5.73749ZM8.99999 0.143387C4.40582 0.143387 0.666656 3.17922 0.666656 6.90839C0.666656 10.2501 3.63166 13.0492 7.63582 13.5809C7.90666 13.6376 8.27666 13.7601 8.36999 13.9909C8.45332 14.1992 8.42499 14.5226 8.39666 14.7409L8.28249 15.4492C8.25166 15.6576 8.11582 16.2726 9.01082 15.8967C9.90749 15.5226 13.8142 13.0651 15.5642 11.0534C16.7608 9.74089 17.3333 8.39755 17.3333 6.90839C17.3333 3.17922 13.5933 0.143387 8.99999 0.143387Z" fill="#EB5757"/>
</svg>
