<svg width="30" height="30" viewBox="0 0 30 30" fill="none" xmlns="http://www.w3.org/2000/svg">
<path d="M19.1054 4.14648C17.4742 4.14648 15.9957 4.45218 14.8403 5.02809C13.6857 5.604 12.7368 6.54201 12.7368 7.78572V11.425C12.7368 11.5423 12.7759 11.6561 12.7941 11.7661C11.8834 11.5347 10.947 11.4201 10.0073 11.425C8.37605 11.425 6.89761 11.7307 5.74215 12.3066C4.5876 12.8825 3.63867 13.8205 3.63867 15.0642V22.3427C3.63867 23.5864 4.5876 24.5244 5.74306 25.1003C6.89761 25.6762 8.37605 25.9819 10.0073 25.9819C11.6386 25.9819 13.1171 25.6762 14.2725 25.1003C15.4262 24.5244 16.376 23.5864 16.376 22.3427V21.9733C17.266 22.2139 18.1835 22.3381 19.1054 22.3427C20.7367 22.3427 22.2152 22.037 23.3706 21.4611C24.5243 20.8852 25.4741 19.9472 25.4741 18.7034V7.78572C25.4741 6.54201 24.5252 5.604 23.3697 5.02809C22.2161 4.45218 20.7376 4.14648 19.1054 4.14648ZM19.1054 5.9661C20.4911 5.9661 21.7248 6.26452 22.5454 6.67667C23.367 7.08881 23.6545 7.52279 23.6545 7.78572C23.6545 8.04957 23.367 8.48264 22.5454 8.89478C21.7257 9.30693 20.4911 9.60535 19.1054 9.60535C17.7198 9.60535 16.4861 9.30693 15.6655 8.89478C14.8439 8.48264 14.5564 8.04866 14.5564 7.78572C14.5564 7.52188 14.8439 7.08881 15.6655 6.67667C16.4852 6.26452 17.7198 5.9661 19.1054 5.9661ZM14.5564 10.3732C14.6519 10.426 14.7411 10.4942 14.8412 10.5434C15.9957 11.1193 17.4742 11.425 19.1054 11.425C20.7367 11.425 22.2152 11.1193 23.3706 10.5434C23.4698 10.4942 23.559 10.426 23.6545 10.3732V11.425C23.6545 11.6888 23.367 12.1219 22.5454 12.534C21.7248 12.9462 20.4911 13.2446 19.1054 13.2446C17.7198 13.2446 16.4861 12.9462 15.6655 12.534C14.8439 12.1219 14.5564 11.6879 14.5564 11.425V10.3732ZM10.0073 13.2446C11.393 13.2446 12.6267 13.543 13.4473 13.9551C14.2689 14.3673 14.5564 14.8013 14.5564 15.0642C14.5564 15.3281 14.2689 15.7611 13.4473 16.1733C12.6267 16.5854 11.393 16.8838 10.0073 16.8838C8.6217 16.8838 7.388 16.5854 6.56735 16.1733C5.74579 15.7611 5.45829 15.3271 5.45829 15.0642C5.45829 14.8004 5.74579 14.3673 6.56735 13.9551C7.38709 13.543 8.6217 13.2446 10.0073 13.2446ZM23.6545 14.0125V15.0642C23.6545 15.3281 23.367 15.7611 22.5454 16.1733C21.7248 16.5854 20.4911 16.8838 19.1054 16.8838C18.1786 16.8889 17.2571 16.7448 16.376 16.4571V15.0642C16.376 14.9468 16.3369 14.8331 16.3187 14.723C17.1648 14.9432 18.1028 15.0642 19.1054 15.0642C20.7367 15.0642 22.2152 14.7585 23.3706 14.1826C23.4698 14.1335 23.559 14.0652 23.6545 14.0125ZM5.45829 17.6517C5.55382 17.7045 5.64298 17.7727 5.74306 17.8218C6.89761 18.3977 8.37605 18.7034 10.0073 18.7034C11.6386 18.7034 13.1171 18.3977 14.2725 17.8218C14.3717 17.7727 14.4609 17.7045 14.5564 17.6517V18.7034C14.5564 18.9673 14.2689 19.4004 13.4473 19.8125C12.6267 20.2246 11.393 20.5231 10.0073 20.5231C8.6217 20.5231 7.388 20.2246 6.56735 19.8125C5.74579 19.4004 5.45829 18.9664 5.45829 18.7034V17.6517ZM23.6545 17.6517V18.7034C23.6545 18.9673 23.367 19.4004 22.5454 19.8125C21.7248 20.2246 20.4911 20.5231 19.1054 20.5231C18.071 20.5231 17.1366 20.3775 16.376 20.1246V18.3623C17.2112 18.5824 18.121 18.7034 19.1054 18.7034C20.7367 18.7034 22.2152 18.3977 23.3706 17.8218C23.4698 17.7727 23.559 17.7045 23.6545 17.6517ZM5.45829 21.2909C5.55382 21.3437 5.64298 21.412 5.74306 21.4611C6.89761 22.037 8.37605 22.3427 10.0073 22.3427C11.6386 22.3427 13.1171 22.037 14.2725 21.4611C14.3717 21.412 14.4609 21.3437 14.5564 21.2909V22.3427C14.5564 22.6065 14.2689 23.0396 13.4473 23.4517C12.6267 23.8639 11.393 24.1623 10.0073 24.1623C8.6217 24.1623 7.388 23.8639 6.56735 23.4517C5.74579 23.0396 5.45829 22.6056 5.45829 22.3427V21.2909Z" fill="white"/>
</svg>
