<svg width="24" height="24" viewBox="0 0 24 24" fill="none" xmlns="http://www.w3.org/2000/svg">
<path d="M16.23 18L12 15.45L7.77 18L8.89 13.19L5.16 9.95998L10.08 9.53998L12 4.99998L13.92 9.52998L18.84 9.94998L15.11 13.18L16.23 18ZM12 1.99998C6.47 1.99998 2 6.49998 2 12C2 14.6521 3.05357 17.1957 4.92893 19.0711C5.85752 19.9996 6.95991 20.7362 8.17317 21.2388C9.38642 21.7413 10.6868 22 12 22C14.6522 22 17.1957 20.9464 19.0711 19.0711C20.9464 17.1957 22 14.6521 22 12C22 10.6868 21.7413 9.3864 21.2388 8.17315C20.7363 6.95989 19.9997 5.8575 19.0711 4.92892C18.1425 4.00033 17.0401 3.26374 15.8268 2.76119C14.6136 2.25864 13.3132 1.99998 12 1.99998Z" fill="#333333"/>
</svg>
