<svg width="23" height="24" viewBox="0 0 23 24" fill="none" xmlns="http://www.w3.org/2000/svg">
<path d="M19.9367 20.7355L20.1815 20.9135C20.0183 21.0619 19.9367 21.2399 19.9367 21.4476C19.9367 21.6404 20.0072 21.8073 20.1481 21.9482C20.289 22.0891 20.4559 22.1596 20.6487 22.1596H21.828L22.2063 22.4488C21.6278 23.2054 20.8712 23.5836 19.9367 23.5836H2.8481C2.06191 23.5836 1.39067 23.3055 0.834405 22.7492C0.278135 22.193 0 21.5217 0 20.7355V3.64693C0 2.86073 0.278135 2.1895 0.834405 1.63323C1.39067 1.07696 2.06191 0.798828 2.8481 0.798828H19.9367C20.8712 0.798828 21.6278 1.17709 22.2063 1.93362L21.828 2.22288H20.6487C20.4559 2.22288 20.289 2.29334 20.1481 2.43426C20.0072 2.57518 19.9367 2.74206 19.9367 2.9349C19.9367 3.14258 20.0183 3.32058 20.1815 3.46892L19.9367 3.64693L22.7848 5.78301L19.9367 7.91908L22.7848 10.0552L19.9367 12.1912L22.7848 14.3273L19.9367 16.4634L22.7848 18.5995L19.9367 20.7355ZM12.1044 22.1596H13.5285C13.7213 22.1596 13.8882 22.0891 14.0291 21.9482C14.17 21.8073 14.2405 21.6404 14.2405 21.4476C14.2405 21.2547 14.17 21.0878 14.0291 20.9469C13.8882 20.806 13.7213 20.7355 13.5285 20.7355H12.1044C11.9116 20.7355 11.7447 20.806 11.6038 20.9469C11.4629 21.0878 11.3924 21.2547 11.3924 21.4476C11.3924 21.6404 11.4629 21.8073 11.6038 21.9482C11.7447 22.0891 11.9116 22.1596 12.1044 22.1596ZM15.6646 17.8874C16.4508 17.8874 17.122 17.6093 17.6783 17.053C18.2345 16.4968 18.5127 15.8255 18.5127 15.0393C18.5127 14.2531 18.2345 13.5819 17.6783 13.0256C17.122 12.4694 16.4508 12.1912 15.6646 12.1912C14.8784 12.1912 14.2071 12.4694 13.6509 13.0256C13.0946 13.5819 12.8165 14.2531 12.8165 15.0393C12.8165 15.8255 13.0946 16.4968 13.6509 17.053C14.2071 17.6093 14.8784 17.8874 15.6646 17.8874ZM7.83228 22.1596H9.25633C9.44917 22.1596 9.61605 22.0891 9.75697 21.9482C9.89789 21.8073 9.96835 21.6404 9.96835 21.4476C9.96835 21.2547 9.89789 21.0878 9.75697 20.9469C9.61605 20.806 9.44917 20.7355 9.25633 20.7355H7.83228C7.63944 20.7355 7.47256 20.806 7.33164 20.9469C7.19071 21.0878 7.12025 21.2547 7.12025 21.4476C7.12025 21.6404 7.19071 21.8073 7.33164 21.9482C7.47256 22.0891 7.63944 22.1596 7.83228 22.1596ZM3.56013 22.1596H4.98418C5.17702 22.1596 5.3439 22.0891 5.48482 21.9482C5.62574 21.8073 5.6962 21.6404 5.6962 21.4476C5.6962 21.2547 5.62574 21.0878 5.48482 20.9469C5.3439 20.806 5.17702 20.7355 4.98418 20.7355H3.56013C3.36729 20.7355 3.20041 20.806 3.05948 20.9469C2.91856 21.0878 2.8481 21.2547 2.8481 21.4476C2.8481 21.6404 2.91856 21.8073 3.05948 21.9482C3.20041 22.0891 3.36729 22.1596 3.56013 22.1596ZM1.42405 19.3115C1.42405 19.5043 1.49451 19.6712 1.63543 19.8121C1.77635 19.9531 1.94324 20.0235 2.13608 20.0235C2.32892 20.0235 2.4958 19.9531 2.63672 19.8121C2.77764 19.6712 2.8481 19.5043 2.8481 19.3115V17.8874C2.8481 17.6946 2.77764 17.5277 2.63672 17.3868C2.4958 17.2459 2.32892 17.1754 2.13608 17.1754C1.94324 17.1754 1.77635 17.2459 1.63543 17.3868C1.49451 17.5277 1.42405 17.6946 1.42405 17.8874V19.3115ZM1.42405 15.0393C1.42405 15.2322 1.49451 15.3991 1.63543 15.54C1.77635 15.6809 1.94324 15.7514 2.13608 15.7514C2.32892 15.7514 2.4958 15.6809 2.63672 15.54C2.77764 15.3991 2.8481 15.2322 2.8481 15.0393V13.6153C2.8481 13.4224 2.77764 13.2556 2.63672 13.1146C2.4958 12.9737 2.32892 12.9033 2.13608 12.9033C1.94324 12.9033 1.77635 12.9737 1.63543 13.1146C1.49451 13.2556 1.42405 13.4224 1.42405 13.6153V15.0393ZM1.42405 10.7672C1.42405 10.96 1.49451 11.1269 1.63543 11.2678C1.77635 11.4087 1.94324 11.4792 2.13608 11.4792C2.32892 11.4792 2.4958 11.4087 2.63672 11.2678C2.77764 11.1269 2.8481 10.96 2.8481 10.7672V9.34313C2.8481 9.15029 2.77764 8.98341 2.63672 8.84249C2.4958 8.70157 2.32892 8.63111 2.13608 8.63111C1.94324 8.63111 1.77635 8.70157 1.63543 8.84249C1.49451 8.98341 1.42405 9.15029 1.42405 9.34313V10.7672ZM2.13608 4.35895C1.94324 4.35895 1.77635 4.42942 1.63543 4.57034C1.49451 4.71126 1.42405 4.87814 1.42405 5.07098V6.49503C1.42405 6.68787 1.49451 6.85475 1.63543 6.99567C1.77635 7.1366 1.94324 7.20706 2.13608 7.20706C2.32892 7.20706 2.4958 7.1366 2.63672 6.99567C2.77764 6.85475 2.8481 6.68787 2.8481 6.49503V5.07098C2.8481 4.87814 2.77764 4.71126 2.63672 4.57034C2.4958 4.42942 2.32892 4.35895 2.13608 4.35895ZM4.98418 2.22288H3.56013C3.36729 2.22288 3.20041 2.29334 3.05948 2.43426C2.91856 2.57518 2.8481 2.74206 2.8481 2.9349C2.8481 3.12774 2.91856 3.29463 3.05948 3.43555C3.20041 3.57647 3.36729 3.64693 3.56013 3.64693H4.98418C5.17702 3.64693 5.3439 3.57647 5.48482 3.43555C5.62574 3.29463 5.6962 3.12774 5.6962 2.9349C5.6962 2.74206 5.62574 2.57518 5.48482 2.43426C5.3439 2.29334 5.17702 2.22288 4.98418 2.22288ZM9.25633 2.22288H7.83228C7.63944 2.22288 7.47256 2.29334 7.33164 2.43426C7.19071 2.57518 7.12025 2.74206 7.12025 2.9349C7.12025 3.12774 7.19071 3.29463 7.33164 3.43555C7.47256 3.57647 7.63944 3.64693 7.83228 3.64693H9.25633C9.44917 3.64693 9.61605 3.57647 9.75697 3.43555C9.89789 3.29463 9.96835 3.12774 9.96835 2.9349C9.96835 2.74206 9.89789 2.57518 9.75697 2.43426C9.61605 2.29334 9.44917 2.22288 9.25633 2.22288ZM8.5443 6.49503C7.75811 6.49503 7.08688 6.77317 6.53061 7.32944C5.97434 7.88571 5.6962 8.55694 5.6962 9.34313C5.6962 10.1293 5.97434 10.8006 6.53061 11.3568C7.08688 11.9131 7.75811 12.1912 8.5443 12.1912C9.3305 12.1912 10.0017 11.9131 10.558 11.3568C11.1143 10.8006 11.3924 10.1293 11.3924 9.34313C11.3924 8.55694 11.1143 7.88571 10.558 7.32944C10.0017 6.77317 9.3305 6.49503 8.5443 6.49503ZM13.5285 2.22288H12.1044C11.9116 2.22288 11.7447 2.29334 11.6038 2.43426C11.4629 2.57518 11.3924 2.74206 11.3924 2.9349C11.3924 3.12774 11.4629 3.29463 11.6038 3.43555C11.7447 3.57647 11.9116 3.64693 12.1044 3.64693H13.5285C13.7213 3.64693 13.8882 3.57647 14.0291 3.43555C14.17 3.29463 14.2405 3.12774 14.2405 2.9349C14.2405 2.74206 14.17 2.57518 14.0291 2.43426C13.8882 2.29334 13.7213 2.22288 13.5285 2.22288ZM15.3419 6.59516C15.1862 6.49874 15.0193 6.47278 14.8413 6.51728C14.6633 6.56178 14.5224 6.67304 14.4185 6.85104L8.63331 16.8416C8.5443 17.0048 8.52205 17.1828 8.56655 17.3757C8.61106 17.5685 8.71489 17.7131 8.87807 17.8096C9.04124 17.906 9.21183 17.9282 9.38983 17.8763C9.56784 17.8244 9.70135 17.7168 9.79035 17.5537L15.5978 7.54082C15.6868 7.37765 15.7054 7.20335 15.6534 7.01792C15.6015 6.8325 15.4977 6.69158 15.3419 6.59516ZM17.8006 2.22288H16.3766C16.1837 2.22288 16.0169 2.29334 15.8759 2.43426C15.735 2.57518 15.6646 2.74206 15.6646 2.9349C15.6646 3.12774 15.735 3.29463 15.8759 3.43555C16.0169 3.57647 16.1837 3.64693 16.3766 3.64693H17.8006C17.9935 3.64693 18.1604 3.57647 18.3013 3.43555C18.4422 3.29463 18.5127 3.12774 18.5127 2.9349C18.5127 2.74206 18.4422 2.57518 18.3013 2.43426C18.1604 2.29334 17.9935 2.22288 17.8006 2.22288ZM17.8006 20.7355H16.3766C16.1837 20.7355 16.0169 20.806 15.8759 20.9469C15.735 21.0878 15.6646 21.2547 15.6646 21.4476C15.6646 21.6404 15.735 21.8073 15.8759 21.9482C16.0169 22.0891 16.1837 22.1596 16.3766 22.1596H17.8006C17.9935 22.1596 18.1604 22.0891 18.3013 21.9482C18.4422 21.8073 18.5127 21.6404 18.5127 21.4476C18.5127 21.2547 18.4422 21.0878 18.3013 20.9469C18.1604 20.806 17.9935 20.7355 17.8006 20.7355ZM8.55543 10.7672C8.16233 10.7672 7.82486 10.6263 7.54302 10.3444C7.26118 10.0626 7.12025 9.7251 7.12025 9.33201C7.12025 8.93891 7.26118 8.60515 7.54302 8.33072C7.82486 8.05629 8.16233 7.91908 8.55543 7.91908C8.94853 7.91908 9.28229 8.05629 9.55672 8.33072C9.83114 8.60515 9.96835 8.93891 9.96835 9.33201C9.96835 9.7251 9.83114 10.0626 9.55672 10.3444C9.28229 10.6263 8.94853 10.7672 8.55543 10.7672ZM15.6757 13.6153C16.0688 13.6153 16.4025 13.7525 16.677 14.0269C16.9514 14.3014 17.0886 14.6351 17.0886 15.0282C17.0886 15.4213 16.9514 15.7588 16.677 16.0406C16.4025 16.3225 16.0688 16.4634 15.6757 16.4634C15.2826 16.4634 14.9451 16.3225 14.6633 16.0406C14.3814 15.7588 14.2405 15.4213 14.2405 15.0282C14.2405 14.6351 14.3814 14.3014 14.6633 14.0269C14.9451 13.7525 15.2826 13.6153 15.6757 13.6153Z" fill="#EB5757"/>
</svg>
