<svg width="91" height="80" viewBox="0 0 91 80" fill="none" xmlns="http://www.w3.org/2000/svg">
<g clip-path="url(#clip0)">
<path d="M83 0H8C3.85938 0 0.5 3.35938 0.5 7.5V57.5C0.5 61.6406 3.85938 65 8 65H38L35.5 72.5H24.25C22.1719 72.5 20.5 74.1719 20.5 76.25C20.5 78.3281 22.1719 80 24.25 80H66.75C68.8281 80 70.5 78.3281 70.5 76.25C70.5 74.1719 68.8281 72.5 66.75 72.5H55.5L53 65H83C87.1406 65 90.5 61.6406 90.5 57.5V7.5C90.5 3.35938 87.1406 0 83 0ZM80.5 55H10.5V10H80.5V55Z" fill="#212529"/>
<path d="M22.2435 38.12V34.232L29.6115 23.72H34.7715V34.04H36.6195V38.12H34.7715V41H30.0195V38.12H22.2435ZM30.3795 29.024L27.0675 34.04H30.3795V29.024ZM38.5493 31.976C38.5493 29.224 39.1093 27.056 40.2293 25.472C41.3493 23.888 43.1093 23.096 45.5093 23.096C47.9093 23.096 49.6693 23.888 50.7893 25.472C51.9253 27.056 52.4933 29.224 52.4933 31.976C52.4933 34.76 51.9333 36.944 50.8133 38.528C49.6933 40.112 47.9253 40.904 45.5093 40.904C43.0933 40.904 41.3253 40.112 40.2053 38.528C39.1013 36.944 38.5493 34.76 38.5493 31.976ZM47.8373 31.976C47.8373 30.536 47.6853 29.44 47.3813 28.688C47.0773 27.92 46.4533 27.536 45.5093 27.536C44.5653 27.536 43.9413 27.92 43.6373 28.688C43.3333 29.44 43.1813 30.536 43.1813 31.976C43.1813 33.448 43.3253 34.568 43.6133 35.336C43.9173 36.088 44.5493 36.464 45.5093 36.464C46.4693 36.464 47.0933 36.088 47.3813 35.336C47.6853 34.568 47.8373 33.448 47.8373 31.976ZM54.6107 38.12V34.232L61.9787 23.72H67.1387V34.04H68.9867V38.12H67.1387V41H62.3867V38.12H54.6107ZM62.7467 29.024L59.4347 34.04H62.7467V29.024Z" fill="#212529"/>
</g>
<defs>
<clipPath id="clip0">
<rect width="90" height="80" fill="white" transform="translate(0.5)"/>
</clipPath>
</defs>
</svg>
