<svg width="20" height="32" viewBox="0 0 20 32" fill="none" xmlns="http://www.w3.org/2000/svg">
<path d="M14.959 8.82737C16.467 9.69751 17.7192 10.9495 18.5896 12.4573C19.46 13.9651 19.918 15.6756 19.9173 17.4166V28.75H14.0098C13.7171 29.5795 13.1744 30.2978 12.4563 30.8058C11.7382 31.3139 10.8803 31.5868 10.0007 31.5868C9.12103 31.5868 8.26305 31.3139 7.545 30.8058C6.82695 30.2978 6.28417 29.5795 5.99149 28.75H0.083985V17.4166C0.0833495 15.6756 0.541283 13.9651 1.41171 12.4573C2.28213 10.9495 3.53433 9.69751 5.04232 8.82737C4.80954 8.40928 4.63102 7.96321 4.51107 7.49996H0.083985V4.66662H4.51249C4.82761 3.45078 5.53754 2.374 6.53086 1.60531C7.52418 0.836618 8.74464 0.419537 10.0007 0.419537C11.2567 0.419537 12.4771 0.836618 13.4704 1.60531C14.4638 2.374 15.1737 3.45078 15.4888 4.66662H19.9173V7.49996H15.4888C15.3691 7.96286 15.1916 8.40884 14.9604 8.82737H14.959ZM10.0007 18.8333C9.62493 18.8333 9.26459 18.9825 8.99892 19.2482C8.73324 19.5139 8.58399 19.8742 8.58399 20.25V27.3333C8.58399 27.709 8.73324 28.0693 8.99892 28.335C9.26459 28.6007 9.62493 28.75 10.0007 28.75C10.3764 28.75 10.7367 28.6007 11.0024 28.335C11.2681 28.0693 11.4173 27.709 11.4173 27.3333V20.25C11.4173 19.8742 11.2681 19.5139 11.0024 19.2482C10.7367 18.9825 10.3764 18.8333 10.0007 18.8333ZM10.0007 8.91662C10.7521 8.91662 11.4728 8.61811 12.0041 8.08676C12.5355 7.55541 12.834 6.83474 12.834 6.08329C12.834 5.33184 12.5355 4.61117 12.0041 4.07982C11.4728 3.54847 10.7521 3.24996 10.0007 3.24996C9.24921 3.24996 8.52854 3.54847 7.99718 4.07982C7.46583 4.61117 7.16732 5.33184 7.16732 6.08329C7.16732 6.83474 7.46583 7.55541 7.99718 8.08676C8.52854 8.61811 9.24921 8.91662 10.0007 8.91662Z" fill="#3A3A3A"/>
</svg>
