<svg width="10" height="16" viewBox="0 0 10 16" fill="none" xmlns="http://www.w3.org/2000/svg">
<path d="M7.3335 4.6246C8.04314 5.03407 8.63241 5.62324 9.04202 6.3328C9.45163 7.04236 9.66713 7.84729 9.66683 8.6666V13.9999H6.88683C6.7491 14.3903 6.49367 14.7283 6.15576 14.9674C5.81786 15.2065 5.41411 15.3349 5.00016 15.3349C4.58622 15.3349 4.18247 15.2065 3.84456 14.9674C3.50666 14.7283 3.25123 14.3903 3.1135 13.9999H0.333496V8.6666C0.333197 7.84729 0.548695 7.04236 0.958306 6.3328C1.36792 5.62324 1.95719 5.03407 2.66683 4.6246C2.55729 4.42785 2.47328 4.21793 2.41683 3.99993H0.333496V2.6666H2.4175C2.56579 2.09444 2.89988 1.58772 3.36732 1.22598C3.83477 0.864243 4.4091 0.667969 5.00016 0.667969C5.59123 0.667969 6.16556 0.864243 6.63301 1.22598C7.10045 1.58772 7.43454 2.09444 7.58283 2.6666H9.66683V3.99993H7.58283C7.52616 4.21993 7.4415 4.42993 7.33416 4.6246H7.3335ZM6.36483 5.6246C5.9655 5.86327 5.49883 5.99993 5.00016 5.99993C4.51969 6.00066 4.04802 5.87093 3.6355 5.6246C3.049 5.88787 2.55112 6.31509 2.20183 6.85481C1.85255 7.39453 1.66676 8.02372 1.66683 8.6666V12.6666H3.00016V9.99993C3.00016 9.4695 3.21088 8.96079 3.58595 8.58572C3.96102 8.21065 4.46973 7.99993 5.00016 7.99993C5.5306 7.99993 6.0393 8.21065 6.41438 8.58572C6.78945 8.96079 7.00016 9.4695 7.00016 9.99993V12.6666H8.3335V8.6666C8.33357 8.02372 8.14778 7.39453 7.79849 6.85481C7.44921 6.31509 6.95133 5.88787 6.36483 5.6246ZM5.00016 9.33327C4.82335 9.33327 4.65378 9.4035 4.52876 9.52853C4.40373 9.65355 4.3335 9.82312 4.3335 9.99993V13.3333C4.3335 13.5101 4.40373 13.6796 4.52876 13.8047C4.65378 13.9297 4.82335 13.9999 5.00016 13.9999C5.17697 13.9999 5.34654 13.9297 5.47157 13.8047C5.59659 13.6796 5.66683 13.5101 5.66683 13.3333V9.99993C5.66683 9.82312 5.59659 9.65355 5.47157 9.52853C5.34654 9.4035 5.17697 9.33327 5.00016 9.33327ZM5.00016 4.6666C5.35379 4.6666 5.69292 4.52612 5.94297 4.27607C6.19302 4.02603 6.3335 3.68689 6.3335 3.33327C6.3335 2.97964 6.19302 2.6405 5.94297 2.39046C5.69292 2.14041 5.35379 1.99993 5.00016 1.99993C4.64654 1.99993 4.3074 2.14041 4.05735 2.39046C3.80731 2.6405 3.66683 2.97964 3.66683 3.33327C3.66683 3.68689 3.80731 4.02603 4.05735 4.27607C4.3074 4.52612 4.64654 4.6666 5.00016 4.6666Z" fill="#333333"/>
</svg>
