<svg width="23" height="23" viewBox="0 0 23 23" fill="none" xmlns="http://www.w3.org/2000/svg">
<path d="M0.504415 22.5L1.99161 17.0352C1.01167 15.3553 0.49682 13.4448 0.500015 11.5C0.500015 5.4247 5.42471 0.5 11.5 0.5C17.5753 0.5 22.5 5.4247 22.5 11.5C22.5 17.5753 17.5753 22.5 11.5 22.5C9.55606 22.5031 7.64633 21.9887 5.96701 21.0095L0.504415 22.5ZM7.53011 6.3388C7.38806 6.34762 7.24925 6.38503 7.12201 6.4488C7.00268 6.51637 6.89376 6.60084 6.79861 6.6996C6.66661 6.8239 6.59181 6.9317 6.51151 7.0362C6.10496 7.56529 5.88628 8.21476 5.89001 8.882C5.89221 9.42099 6.03301 9.94569 6.25301 10.4363C6.70291 11.4285 7.44321 12.479 8.42111 13.4525C8.65651 13.6868 8.88641 13.9222 9.13391 14.1411C10.3476 15.2097 11.794 15.9803 13.3579 16.3917L13.9838 16.4874C14.1873 16.4984 14.3908 16.483 14.5954 16.4731C14.9158 16.4566 15.2286 16.3698 15.5117 16.219C15.6943 16.1222 15.7801 16.0738 15.933 15.977C15.933 15.977 15.9803 15.9462 16.0705 15.878C16.219 15.768 16.3103 15.6899 16.4335 15.5612C16.5248 15.4666 16.604 15.3555 16.6645 15.229C16.7503 15.0497 16.8361 14.7076 16.8713 14.4227C16.8977 14.2049 16.89 14.0861 16.8867 14.0124C16.8823 13.8947 16.7844 13.7726 16.6777 13.7209L16.0375 13.4338C16.0375 13.4338 15.0805 13.0169 14.4964 12.7507C14.4348 12.7238 14.3688 12.7086 14.3017 12.7056C14.2264 12.6979 14.1504 12.7063 14.0787 12.7304C14.007 12.7545 13.9412 12.7937 13.8859 12.8453V12.8431C13.8804 12.8431 13.8067 12.9058 13.0114 13.8694C12.9658 13.9307 12.9029 13.9771 12.8308 14.0026C12.7587 14.028 12.6807 14.0314 12.6066 14.0124C12.5349 13.9932 12.4647 13.969 12.3965 13.9398C12.2601 13.8826 12.2128 13.8606 12.1193 13.8199L12.1138 13.8177C11.4845 13.5429 10.9019 13.1718 10.3868 12.7177C10.2482 12.5967 10.1195 12.4647 9.98751 12.3371C9.55474 11.9227 9.1776 11.4538 8.86551 10.9423L8.80061 10.8378C8.75399 10.7676 8.7163 10.6918 8.68841 10.6123C8.64661 10.4506 8.75551 10.3208 8.75551 10.3208C8.75551 10.3208 9.02281 10.0282 9.14711 9.86979C9.25061 9.73815 9.34717 9.6012 9.43641 9.45949C9.56621 9.25049 9.60691 9.03599 9.53871 8.86989C9.23071 8.1175 8.91171 7.3684 8.58391 6.6248C8.51901 6.4774 8.32651 6.3718 8.15161 6.3509C8.09221 6.3443 8.03281 6.3377 7.97341 6.3333C7.82569 6.32596 7.67766 6.32743 7.53011 6.3377V6.3388Z" fill="#00D053"/>
</svg>
