<svg width="17" height="12" viewBox="0 0 17 12" fill="none" xmlns="http://www.w3.org/2000/svg">
<path d="M16.5404 1.87759C16.3514 1.13853 15.7945 0.556469 15.0874 0.358938C13.8058 0 8.66651 0 8.66651 0C8.66651 0 3.5273 0 2.24563 0.358938C1.53854 0.5565 0.981647 1.13853 0.792635 1.87759C0.449219 3.21719 0.449219 6.01213 0.449219 6.01213C0.449219 6.01213 0.449219 8.80706 0.792635 10.1467C0.981647 10.8857 1.53854 11.4435 2.24563 11.6411C3.5273 12 8.66651 12 8.66651 12C8.66651 12 13.8057 12 15.0874 11.6411C15.7945 11.4435 16.3514 10.8857 16.5404 10.1467C16.8838 8.80706 16.8838 6.01213 16.8838 6.01213C16.8838 6.01213 16.8838 3.21719 16.5404 1.87759ZM6.98569 8.54972V3.47453L11.2811 6.01219L6.98569 8.54972Z" fill="#EB5757"/>
</svg>
