<svg width="16" height="16" viewBox="0 0 16 16" fill="none" xmlns="http://www.w3.org/2000/svg">
<path d="M12.75 2H3.25C2.78628 2.00132 2.34192 2.18612 2.01402 2.51402C1.68612 2.84192 1.50132 3.28628 1.5 3.75V9.75C1.50132 10.2137 1.68612 10.6581 2.01402 10.986C2.34192 11.3139 2.78628 11.4987 3.25 11.5H4.5V14L7.42875 11.5581C7.47372 11.5206 7.53046 11.5 7.58906 11.5H12.75C13.2137 11.4987 13.6581 11.3139 13.986 10.986C14.3139 10.6581 14.4987 10.2137 14.5 9.75V3.75C14.4987 3.28628 14.3139 2.84192 13.986 2.51402C13.6581 2.18612 13.2137 2.00132 12.75 2V2Z" stroke="#6A6A6A" stroke-linejoin="round"/>
<path d="M5 7.75C5.55228 7.75 6 7.30228 6 6.75C6 6.19772 5.55228 5.75 5 5.75C4.44772 5.75 4 6.19772 4 6.75C4 7.30228 4.44772 7.75 5 7.75Z" fill="#6A6A6A"/>
<path d="M8 7.75C8.55228 7.75 9 7.30228 9 6.75C9 6.19772 8.55228 5.75 8 5.75C7.44772 5.75 7 6.19772 7 6.75C7 7.30228 7.44772 7.75 8 7.75Z" fill="#6A6A6A"/>
<path d="M11 7.75C11.5523 7.75 12 7.30228 12 6.75C12 6.19772 11.5523 5.75 11 5.75C10.4477 5.75 10 6.19772 10 6.75C10 7.30228 10.4477 7.75 11 7.75Z" fill="#6A6A6A"/>
</svg>
